<?xml version="1.0" standalone="no"?>
<!DOCTYPE svg PUBLIC "-//W3C//DTD SVG 20010904//EN"
 "http://www.w3.org/TR/2001/REC-SVG-20010904/DTD/svg10.dtd">
<svg version="1.0" xmlns="http://www.w3.org/2000/svg"
 width="648.000000pt" height="110.000000pt" viewBox="0 0 648.000000 110.000000"
 preserveAspectRatio="xMidYMid meet">

<g transform="translate(0.000000,110.000000) scale(0.100000,-0.100000)"
fill="#000000" stroke="none">
<path d="M382 860 c-7 -11 -20 -20 -30 -20 -35 0 -122 -52 -162 -97 -25 -29
-46 -67 -56 -100 -9 -30 -22 -57 -30 -60 -18 -7 -18 -32 1 -39 8 -3 21 -30 30
-61 22 -75 97 -152 179 -182 33 -12 65 -30 72 -39 12 -16 14 -16 26 0 7 9 40
27 72 39 93 34 186 134 186 199 0 11 9 29 20 40 24 24 25 36 6 43 -8 3 -21 30
-30 60 -20 69 -83 142 -151 173 -27 13 -58 24 -67 24 -10 0 -23 9 -30 20 -7
11 -15 20 -18 20 -3 0 -11 -9 -18 -20z m-2 -74 c0 -8 -10 -16 -22 -20 -56 -14
-116 -64 -142 -119 -29 -63 -43 -76 -53 -52 -14 38 63 152 126 185 43 23 91
26 91 6z m143 -16 c46 -29 102 -102 114 -148 7 -29 5 -31 -47 -37 -55 -7 -57
-9 -40 -41 21 -38 -10 -91 -72 -124 -47 -25 -47 -25 -62 -5 -14 19 -15 19 -35
1 -19 -18 -21 -17 -62 5 -23 13 -51 40 -63 61 -18 32 -19 39 -7 62 11 20 12
28 1 41 -17 21 2 66 47 105 35 31 88 41 96 18 9 -27 23 15 26 80 2 22 56 13
104 -18z m-323 -260 c26 -62 68 -108 124 -134 53 -25 66 -39 48 -49 -12 -8
-80 19 -117 47 -57 44 -118 166 -82 166 8 0 20 -14 27 -30z m440 18 c-1 -25
-41 -103 -68 -131 -34 -36 -93 -67 -127 -67 -40 0 -29 17 30 45 58 28 94 66
120 128 14 35 45 52 45 25z"/>
<path d="M374 650 c-25 -10 -35 -32 -24 -51 7 -11 12 -10 28 4 10 9 22 17 25
17 13 0 7 -23 -9 -42 -16 -16 -16 -18 0 -24 20 -8 21 -34 1 -34 -8 0 -15 5
-15 10 0 6 -7 10 -15 10 -18 0 -20 -31 -3 -48 19 -19 66 -15 78 7 14 28 13
126 -2 138 -22 17 -42 21 -64 13z"/>
<path d="M1119 824 c-1 -5 -3 -56 -5 -113 -1 -78 -6 -107 -18 -119 -14 -14
-14 -17 0 -34 11 -12 17 -40 19 -85 2 -37 3 -71 4 -75 2 -12 106 3 121 18 12
12 16 50 18 187 4 205 1 212 -85 223 -29 4 -54 3 -54 -2z m89 -132 c2 -68 0
-83 -13 -88 -23 -9 -25 -4 -29 67 -5 81 1 111 23 107 13 -3 17 -19 19 -86z
m-3 -197 c0 -39 -4 -50 -17 -53 -15 -3 -18 5 -18 53 0 48 3 56 18 53 13 -3 17
-14 17 -53z"/>
<path d="M1546 822 c-2 -4 -4 -102 -3 -217 l2 -210 35 -2 c55 -3 100 6 100 22
0 17 -33 28 -60 20 -19 -6 -20 -2 -20 169 0 96 -4 186 -10 200 -9 25 -33 35
-44 18z"/>
<path d="M1978 818 c-35 -12 -38 -29 -40 -221 -2 -149 -1 -158 19 -179 21 -21
70 -27 93 -13 23 14 30 62 31 211 0 123 -3 160 -15 178 -17 27 -51 36 -88 24z
m46 -54 c11 -29 7 -312 -5 -320 -28 -17 -35 36 -31 239 2 75 5 97 16 97 8 0
17 -7 20 -16z"/>
<path d="M2403 820 c-31 -13 -35 -34 -35 -216 0 -143 2 -168 18 -185 23 -26
89 -26 103 -1 15 28 21 182 7 183 -33 5 -52 3 -63 -5 -10 -6 -13 10 -13 75 0
86 13 133 25 94 17 -53 25 -64 40 -59 25 10 23 70 -3 95 -23 22 -52 29 -79 19z
m45 -317 c-4 -78 -22 -70 -26 11 -3 62 -1 68 13 56 12 -10 15 -27 13 -67z"/>
<path d="M2830 819 c-13 -6 -28 -15 -32 -22 -10 -15 -10 -198 0 -213 4 -7 24
-19 45 -27 35 -15 37 -18 37 -61 0 -25 -5 -48 -12 -52 -14 -9 -38 23 -32 41 6
14 -29 39 -40 28 -13 -13 -5 -71 12 -91 17 -21 30 -25 69 -23 30 1 53 48 53
106 0 61 -14 85 -48 85 -51 0 -56 10 -48 96 4 44 11 83 16 88 13 13 30 -3 30
-29 0 -32 35 -53 48 -28 11 21 -2 76 -20 91 -22 17 -52 21 -78 11z"/>
<path d="M3217 817 c-2 -7 -4 -51 -4 -98 1 -50 -5 -99 -12 -117 -11 -26 -11
-35 -1 -47 7 -8 14 -43 15 -78 3 -80 2 -77 24 -77 23 0 32 22 27 65 -6 43 4
85 20 85 10 0 14 -13 15 -42 1 -68 7 -101 20 -109 31 -19 34 2 34 214 l0 212
-23 0 c-23 0 -24 -3 -28 -109 -3 -106 -13 -142 -30 -115 -4 7 -7 56 -7 108 1
52 -1 100 -4 108 -7 17 -39 17 -46 0z"/>
<path d="M3678 818 c-35 -12 -38 -30 -40 -221 -2 -148 0 -159 19 -179 26 -25
78 -27 102 -3 23 23 30 345 7 379 -17 27 -51 36 -88 24z m46 -54 c11 -29 7
-312 -5 -320 -20 -12 -28 11 -30 91 -5 162 0 245 15 245 8 0 17 -7 20 -16z"/>
<path d="M4075 822 c-5 -4 -10 -53 -11 -109 0 -81 -4 -106 -17 -121 -15 -17
-15 -19 0 -34 10 -11 17 -37 18 -75 2 -32 3 -64 4 -70 2 -20 38 -15 43 5 3 9
6 41 7 71 3 65 5 71 34 71 33 0 48 14 56 51 9 43 -1 185 -14 197 -13 13 -107
24 -120 14z m80 -132 c0 -69 -3 -85 -15 -85 -12 0 -16 18 -18 88 -3 81 -1 88
15 85 16 -3 18 -15 18 -88z"/>
<path d="M5014 817 c-2 -7 -3 -95 -1 -195 3 -170 4 -184 24 -203 26 -27 69
-28 94 -3 16 17 18 37 19 194 0 96 1 185 0 198 0 18 -5 23 -22 20 -23 -3 -23
-5 -26 -183 -1 -99 -5 -187 -8 -195 -14 -38 -22 25 -25 185 -1 94 -7 176 -12
183 -12 16 -36 16 -43 -1z"/>
<path d="M5867 823 c-10 -16 -7 -423 3 -424 47 -6 45 -17 48 186 3 193 -4 245
-32 245 -8 0 -17 -3 -19 -7z"/>
<path d="M6234 820 c-12 -5 -25 -13 -28 -18 -6 -11 -9 -115 -7 -279 l1 -102
30 -16 c39 -20 47 -19 75 10 32 31 36 95 6 95 -20 0 -31 -18 -31 -52 0 -13 -6
-18 -17 -16 -14 2 -20 18 -25 63 -9 75 1 263 15 272 13 8 37 -25 31 -42 -3 -7
4 -19 15 -25 18 -9 23 -8 30 12 4 13 4 36 0 53 -5 16 -9 31 -9 31 0 2 -62 24
-64 23 -1 0 -11 -4 -22 -9z"/>
<path d="M4508 798 c-13 -24 -23 -363 -11 -393 6 -18 39 -20 45 -2 2 6 5 86 7
177 1 91 5 174 8 184 14 47 22 -20 24 -187 1 -97 6 -178 11 -178 45 -7 43 -14
46 166 2 177 6 215 22 215 16 0 19 -32 22 -207 1 -95 4 -173 7 -174 4 0 14 -2
23 -4 9 -2 19 3 22 11 11 29 -3 354 -16 382 -13 26 -16 27 -105 30 -87 3 -93
1 -105 -20z"/>
<path d="M5456 804 c-9 -8 -17 -25 -17 -37 -1 -12 -3 -40 -6 -62 -2 -22 -1
-59 3 -83 5 -39 10 -45 42 -59 47 -19 50 -24 43 -73 -7 -50 -22 -56 -33 -12
-6 22 -15 32 -28 32 -43 0 -29 -82 19 -106 25 -13 75 -2 88 19 10 16 6 148 -5
159 -8 8 -37 14 -76 17 -12 1 2 163 15 176 12 12 29 -11 29 -42 0 -28 39 -33
41 -5 2 34 -3 67 -13 80 -15 17 -83 15 -102 -4z"/>
<path d="M1546 273 c-5 -15 -15 -23 -30 -23 -31 0 -46 -18 -46 -56 0 -40 19
-56 62 -52 33 3 33 3 33 55 0 28 -3 62 -6 75 l-5 23 -8 -22z m-8 -81 c3 -30 1
-33 -20 -30 -18 2 -24 10 -26 36 -3 30 -1 33 20 30 18 -2 24 -10 26 -36z"/>
<path d="M1785 271 c-4 -13 -16 -21 -38 -23 -35 -3 -49 -32 -37 -78 5 -20 13
-26 45 -28 21 -2 41 2 45 8 8 12 5 129 -3 137 -3 2 -8 -5 -12 -16z m-5 -81 c0
-31 -16 -42 -42 -28 -20 10 -24 48 -6 66 18 18 48 -4 48 -38z"/>
<path d="M1128 252 c-21 -4 -20 0 -22 -74 -2 -54 -1 -56 19 -48 26 10 51 -3
40 -20 -4 -7 -19 -10 -36 -6 -17 3 -29 1 -29 -5 0 -6 18 -9 43 -7 35 2 43 7
45 26 3 18 -3 25 -27 33 -37 13 -40 26 -7 38 21 9 36 29 36 51 0 9 -38 17 -62
12z m32 -32 c0 -13 -7 -20 -20 -20 -19 0 -27 20 -13 33 13 14 33 6 33 -13z"/>
<path d="M1232 238 c-16 -16 -16 -70 0 -86 19 -19 55 -14 71 9 15 20 12 53 -6
77 -12 15 -49 16 -65 0z m53 -43 c0 -23 -4 -30 -20 -30 -15 0 -21 8 -23 33 -3
30 -1 33 20 30 18 -2 23 -9 23 -33z"/>
<path d="M1348 225 c-8 -18 -9 -35 -2 -53 18 -52 94 -33 94 23 0 54 -71 76
-92 30z m67 -30 c0 -25 -4 -30 -25 -30 -21 0 -26 5 -28 33 -3 31 -2 33 25 30
24 -3 28 -8 28 -33z"/>
<path d="M1657 223 c-3 -17 -2 -43 2 -59 l8 -29 7 36 c3 20 3 47 -2 59 -9 23
-9 23 -15 -7z"/>
<path d="M1847 243 c-4 -3 -7 -25 -7 -49 0 -45 11 -55 58 -53 26 1 26 1 -5 11
-33 11 -43 32 -20 42 10 5 10 7 0 12 -21 9 -15 34 8 34 18 0 20 -4 15 -26 -6
-23 -5 -24 14 -14 16 9 18 15 10 30 -10 20 -59 28 -73 13z"/>
<path d="M1990 241 c29 -8 34 -33 7 -37 -35 -5 -47 -13 -47 -33 0 -21 18 -31
60 -31 26 0 27 2 23 43 -6 62 -10 67 -40 66 l-28 -1 25 -7z m18 -68 c-5 -26
-38 -29 -38 -4 0 15 6 21 21 21 14 0 19 -5 17 -17z"/>
</g>
</svg>
